<svg width="28" height="20" viewBox="0 0 28 20" fill="none" xmlns="http://www.w3.org/2000/svg">
<path d="M26.5 4.69629H1.5V8.67002H26.5V4.69629Z" stroke="#3FA9F5" stroke-width="1.25" stroke-miterlimit="10" stroke-linecap="round" stroke-linejoin="round"/>
<path d="M24.0357 19.1155H3.96432C2.6033 19.1155 1.5 18.0122 1.5 16.6512V3.71432C1.5 2.3533 2.6033 1.25 3.96432 1.25H24.0357C25.3967 1.25 26.5 2.3533 26.5 3.71432V16.6512C26.5 18.0122 25.3966 19.1155 24.0357 19.1155Z" stroke="#3FA9F5" stroke-width="1.25" stroke-miterlimit="10" stroke-linecap="round" stroke-linejoin="round"/>
<path d="M7.31439 16.2558C8.58504 16.2558 9.6151 15.2192 9.6151 13.9405C9.6151 12.6618 8.58504 11.6252 7.31439 11.6252C6.04374 11.6252 5.01367 12.6618 5.01367 13.9405C5.01367 15.2192 6.04374 16.2558 7.31439 16.2558Z" stroke="#FFBB0B" stroke-width="1.25" stroke-miterlimit="10" stroke-linecap="round" stroke-linejoin="round"/>
<path d="M13.4912 16.256H22.9847" stroke="#FFBB0B" stroke-width="1.25" stroke-miterlimit="10" stroke-linecap="round" stroke-linejoin="round"/>
<path d="M18.5908 13.7408H22.9853" stroke="#FFBB0B" stroke-width="1.25" stroke-miterlimit="10" stroke-linecap="round" stroke-linejoin="round"/>
</svg>
