<svg width="20" height="20" viewBox="0 0 20 20" fill="none" xmlns="http://www.w3.org/2000/svg">
<path d="M20 10C20 15.514 15.514 20 10 20C4.48604 20 0 15.514 0 10C0 9.65479 0.279583 9.375 0.625 9.375C0.970417 9.375 1.25 9.65479 1.25 10C1.25 14.8248 5.17521 18.75 10 18.75C14.8248 18.75 18.75 14.8248 18.75 10C18.75 5.17521 14.8248 1.25 10 1.25C7.67479 1.25 5.51542 2.15396 3.89125 3.75H6.25C6.59542 3.75 6.875 4.02979 6.875 4.375C6.875 4.72021 6.59542 5 6.25 5H2.5C2.15458 5 1.875 4.72021 1.875 4.375V0.625C1.875 0.279792 2.15458 0 2.5 0C2.84542 0 3.125 0.279792 3.125 0.625V2.75687C4.96896 0.996875 7.39187 0 10 0C15.514 0 20 4.48604 20 10Z" fill="#3FA9F5"/>
<path d="M10.5195 9.41016H9.26953C8.92474 9.41016 8.64453 9.12974 8.64453 8.78516C8.64453 8.44057 8.92474 8.16016 9.26953 8.16016H11.7695C12.1149 8.16016 12.3945 7.88036 12.3945 7.53516C12.3945 7.18995 12.1149 6.91016 11.7695 6.91016H10.5195V6.28516C10.5195 5.93995 10.2399 5.66016 9.89453 5.66016C9.54911 5.66016 9.26953 5.93995 9.26953 6.28516V6.91016C8.23557 6.91016 7.39453 7.7512 7.39453 8.78516C7.39453 9.81911 8.23557 10.6602 9.26953 10.6602H10.5195C10.8643 10.6602 11.1445 10.9406 11.1445 11.2852C11.1445 11.6297 10.8643 11.9102 10.5195 11.9102H8.01953C7.67411 11.9102 7.39453 12.1899 7.39453 12.5352C7.39453 12.8804 7.67411 13.1602 8.01953 13.1602H9.26953V13.7852C9.26953 14.1304 9.54911 14.4102 9.89453 14.4102C10.2399 14.4102 10.5195 14.1304 10.5195 13.7852V13.1602C11.5535 13.1602 12.3945 12.3191 12.3945 11.2852C12.3945 10.2512 11.5535 9.41016 10.5195 9.41016Z" fill="#FFBB0B"/>
</svg>
