<svg width="26" height="26" viewBox="0 0 26 26" fill="none" xmlns="http://www.w3.org/2000/svg">
<path d="M7.99581 0.553673L7.99583 0.553673C8.10008 0.552614 8.20349 0.572456 8.29993 0.612023C8.39637 0.651591 8.48389 0.710081 8.55731 0.784032C8.63074 0.857983 8.68857 0.945893 8.7274 1.04256C8.76623 1.13923 8.78527 1.2427 8.78339 1.34685L8.78338 1.34685V1.34781V2.1772V2.23078H8.83695H12.172H12.2255V2.1772V1.34781C12.2255 1.14118 12.3077 0.943008 12.4539 0.796886C12.6001 0.650763 12.7985 0.568664 13.0053 0.568664C13.2121 0.568664 13.4104 0.650763 13.5567 0.796886C13.7029 0.943008 13.785 1.14118 13.785 1.34781V2.1772V2.23078H13.8386H17.1736H17.2272V2.1772V1.34781C17.2272 1.14118 17.3093 0.943008 17.4556 0.796886C17.6018 0.650763 17.8001 0.568664 18.007 0.568664C18.2138 0.568664 18.4121 0.650763 18.5583 0.796886C18.7046 0.943008 18.7867 1.14118 18.7867 1.34781V2.1772V2.23078H18.8403H23.0053C24.3463 2.23078 25.4484 3.33993 25.4484 4.68036V22.9986C25.4484 24.3381 24.3464 25.4465 23.0053 25.4465L3.00727 25.4465C3.00716 25.4465 3.00706 25.4465 3.00695 25.4465C2.35828 25.4426 1.73727 25.1834 1.27844 24.7252C0.819569 24.267 0.55985 23.6466 0.555525 22.9984V4.68054C0.559845 4.03217 0.819515 3.41157 1.27834 2.95308C1.73717 2.49459 2.35825 2.2351 3.00713 2.23078H7.17029H7.22386V2.1772V1.34781H7.22387L7.22385 1.34685C7.22199 1.24401 7.24053 1.14182 7.27839 1.04618C7.31626 0.95054 7.3727 0.863332 7.44446 0.789592C7.51623 0.715852 7.60189 0.657038 7.69652 0.616546C7.79115 0.576054 7.89287 0.554685 7.99581 0.553673ZM7.22386 3.84265V3.78908H7.17029H3.00749C2.88975 3.78674 2.77275 3.80817 2.66349 3.85209C2.55406 3.89608 2.45465 3.96171 2.37124 4.04506C2.28783 4.12841 2.22214 4.22775 2.17811 4.33712C2.13416 4.44631 2.11271 4.56323 2.11505 4.6809V7.17686V7.23044H2.16862L4.67195 7.23044L4.67275 7.23043C4.93978 7.22648 5.13592 7.32368 5.26586 7.46822C5.39673 7.61379 5.46338 7.81077 5.46338 8.00959C5.46338 8.2084 5.39673 8.40538 5.26586 8.55095C5.13592 8.69549 4.93978 8.79269 4.67275 8.78874H4.67195H2.16862H2.11505V8.84231V22.9981C2.11282 23.1156 2.13437 23.2324 2.17839 23.3415C2.22248 23.4507 2.28821 23.5499 2.37163 23.6331C2.45504 23.7163 2.55443 23.7817 2.6638 23.8256C2.77298 23.8693 2.88987 23.8906 3.00747 23.8882H23.0048C23.1223 23.8906 23.2391 23.8693 23.3482 23.8256C23.4575 23.7817 23.5568 23.7162 23.6401 23.633C23.7234 23.5497 23.7889 23.4505 23.8328 23.3413C23.8767 23.2323 23.898 23.1155 23.8955 22.998V8.84231V8.78874H23.842L11.3386 8.78873L11.3378 8.78874C11.0708 8.79269 10.8747 8.69549 10.7447 8.55095C10.6138 8.40538 10.5472 8.2084 10.5472 8.00959C10.5472 7.81077 10.6138 7.61379 10.7447 7.46822C10.8747 7.32368 11.0708 7.22648 11.3378 7.23044H11.3386H23.842H23.8955V7.17686V4.68089C23.898 4.56336 23.8767 4.44654 23.8329 4.33742C23.789 4.22812 23.7235 4.12881 23.6402 4.04545C23.557 3.9621 23.4577 3.89642 23.3484 3.85237C23.2393 3.80838 23.1224 3.78685 23.0048 3.78908H18.8403H18.7867V3.84265V4.67976C18.7635 5.695 17.2504 5.695 17.2272 4.67976V3.84265V3.78908H17.1736H13.8386H13.785V3.84265L13.785 4.68036L13.7851 4.68154C13.791 4.9506 13.6942 5.14818 13.5493 5.27905C13.4034 5.41088 13.2053 5.47804 13.0053 5.47804C12.8053 5.47804 12.6072 5.41088 12.4613 5.27905C12.3164 5.14818 12.2196 4.9506 12.2255 4.68154L12.2255 4.68154V4.68036V3.84265V3.78908H12.172H8.83695H8.78338V3.84265V4.67976C8.7602 5.69501 7.24702 5.695 7.22386 4.67974V3.84265Z" fill="#3FA9F5" stroke="#F2FAFF" stroke-width="0.107143"/>
<path d="M7.41595 7.42078C7.57223 7.26461 7.78419 7.17688 8.00521 7.17688C8.22622 7.17688 8.43818 7.26461 8.59446 7.42078C8.75074 7.57694 8.83854 7.78875 8.83854 8.0096C8.83854 8.23045 8.75074 8.44226 8.59446 8.59842C8.43818 8.75459 8.22622 8.84232 8.00521 8.84232C7.78419 8.84232 7.57223 8.75459 7.41595 8.59842C7.25967 8.44226 7.17188 8.23045 7.17188 8.0096C7.17188 7.78875 7.25967 7.57694 7.41595 7.42078Z" fill="#FFBB0B"/>
<path d="M7.41595 12.4172C7.57223 12.261 7.78419 12.1733 8.00521 12.1733C8.22622 12.1733 8.43818 12.261 8.59446 12.4172C8.75074 12.5733 8.83854 12.7851 8.83854 13.006C8.83854 13.2269 8.75074 13.4387 8.59446 13.5948C8.43818 13.751 8.22622 13.8387 8.00521 13.8387C7.78419 13.8387 7.57223 13.751 7.41595 13.5948C7.25967 13.4387 7.17188 13.2269 7.17188 13.006C7.17188 12.7851 7.25967 12.5733 7.41595 12.4172Z" fill="#FFBB0B"/>
<path d="M12.416 12.4172C12.5722 12.261 12.7842 12.1733 13.0052 12.1733C13.2262 12.1733 13.4382 12.261 13.5945 12.4172C13.7507 12.5733 13.8385 12.7851 13.8385 13.006C13.8385 13.2269 13.7507 13.4387 13.5945 13.5948C13.4382 13.751 13.2262 13.8387 13.0052 13.8387C12.7842 13.8387 12.5722 13.751 12.416 13.5948C12.2597 13.4387 12.1719 13.2269 12.1719 13.006C12.1719 12.7851 12.2597 12.5733 12.416 12.4172Z" fill="#FFBB0B"/>
<path d="M17.416 12.4172C17.5722 12.261 17.7842 12.1733 18.0052 12.1733C18.2262 12.1733 18.4382 12.261 18.5945 12.4172C18.7507 12.5733 18.8385 12.7851 18.8385 13.006C18.8385 13.2269 18.7507 13.4387 18.5945 13.5948C18.4382 13.751 18.2262 13.8387 18.0052 13.8387C17.7842 13.8387 17.5722 13.751 17.416 13.5948C17.2597 13.4387 17.1719 13.2269 17.1719 13.006C17.1719 12.7851 17.2597 12.5733 17.416 12.4172Z" fill="#FFBB0B"/>
<path d="M7.41595 15.7481C7.57223 15.5919 7.78419 15.5042 8.00521 15.5042C8.22622 15.5042 8.43818 15.5919 8.59446 15.7481C8.75074 15.9042 8.83854 16.116 8.83854 16.3369C8.83854 16.5577 8.75074 16.7695 8.59446 16.9257C8.43818 17.0819 8.22622 17.1696 8.00521 17.1696C7.78419 17.1696 7.57223 17.0819 7.41595 16.9257C7.25967 16.7695 7.17188 16.5577 7.17188 16.3369C7.17188 16.116 7.25967 15.9042 7.41595 15.7481Z" fill="#FFBB0B"/>
<path d="M12.416 15.7481C12.5722 15.5919 12.7842 15.5042 13.0052 15.5042C13.2262 15.5042 13.4382 15.5919 13.5945 15.7481C13.7507 15.9042 13.8385 16.116 13.8385 16.3369C13.8385 16.5577 13.7507 16.7695 13.5945 16.9257C13.4382 17.0819 13.2262 17.1696 13.0052 17.1696C12.7842 17.1696 12.5722 17.0819 12.416 16.9257C12.2597 16.7695 12.1719 16.5577 12.1719 16.3369C12.1719 16.116 12.2597 15.9042 12.416 15.7481Z" fill="#FFBB0B"/>
<path d="M17.416 15.7481C17.5722 15.5919 17.7842 15.5042 18.0052 15.5042C18.2262 15.5042 18.4382 15.5919 18.5945 15.7481C18.7507 15.9042 18.8385 16.116 18.8385 16.3369C18.8385 16.5577 18.7507 16.7695 18.5945 16.9257C18.4382 17.0819 18.2262 17.1696 18.0052 17.1696C17.7842 17.1696 17.5722 17.0819 17.416 16.9257C17.2597 16.7695 17.1719 16.5577 17.1719 16.3369C17.1719 16.116 17.2597 15.9042 17.416 15.7481Z" fill="#FFBB0B"/>
<path d="M7.41595 19.0789C7.57223 18.9228 7.78419 18.835 8.00521 18.835C8.22622 18.835 8.43818 18.9228 8.59446 19.0789C8.75074 19.2351 8.83854 19.4469 8.83854 19.6678C8.83854 19.8886 8.75074 20.1004 8.59446 20.2566C8.43818 20.4128 8.22622 20.5005 8.00521 20.5005C7.78419 20.5005 7.57223 20.4128 7.41595 20.2566C7.25967 20.1004 7.17188 19.8886 7.17188 19.6678C7.17188 19.4469 7.25967 19.2351 7.41595 19.0789Z" fill="#FFBB0B"/>
<path d="M12.416 19.0789C12.5722 18.9228 12.7842 18.835 13.0052 18.835C13.2262 18.835 13.4382 18.9228 13.5945 19.0789C13.7507 19.2351 13.8385 19.4469 13.8385 19.6678C13.8385 19.8886 13.7507 20.1004 13.5945 20.2566C13.4382 20.4128 13.2262 20.5005 13.0052 20.5005C12.7842 20.5005 12.5722 20.4128 12.416 20.2566C12.2597 20.1004 12.1719 19.8886 12.1719 19.6678C12.1719 19.4469 12.2597 19.2351 12.416 19.0789Z" fill="#FFBB0B"/>
<path d="M17.416 19.0789C17.5722 18.9228 17.7842 18.835 18.0052 18.835C18.2262 18.835 18.4382 18.9228 18.5945 19.0789C18.7507 19.2351 18.8385 19.4469 18.8385 19.6678C18.8385 19.8886 18.7507 20.1004 18.5945 20.2566C18.4382 20.4128 18.2262 20.5005 18.0052 20.5005C17.7842 20.5005 17.5722 20.4128 17.416 20.2566C17.2597 20.1004 17.1719 19.8886 17.1719 19.6678C17.1719 19.4469 17.2597 19.2351 17.416 19.0789Z" fill="#FFBB0B"/>
</svg>
