<svg width="18" height="26" viewBox="0 0 18 26" fill="none" xmlns="http://www.w3.org/2000/svg">
<path d="M9 0.499939C4.17525 0.499939 0.25 4.44271 0.25 9.289C0.25 10.9264 0.701549 12.5244 1.55613 13.9107L8.50193 25.1537C8.63498 25.3691 8.86938 25.4999 9.12148 25.4999C9.12342 25.4999 9.12532 25.4999 9.12726 25.4999C9.38155 25.4979 9.61644 25.363 9.74705 25.1439L16.5158 13.7919C17.3232 12.4349 17.75 10.8778 17.75 9.289C17.75 4.44271 13.8247 0.499939 9 0.499939ZM15.2643 13.0399L9.11044 23.3606L2.79562 13.1389C2.08429 11.985 1.69861 10.6537 1.69861 9.289C1.69861 5.25043 4.97937 1.95502 9 1.95502C13.0206 1.95502 16.2965 5.25043 16.2965 9.289C16.2965 10.6133 15.9363 11.9105 15.2643 13.0399Z" fill="#3FA9F5"/>
<path d="M8.99902 4.89447C6.58665 4.89447 4.62402 6.86586 4.62402 9.289C4.62402 11.6967 6.55471 13.6835 8.99902 13.6835C11.4735 13.6835 13.374 11.6702 13.374 9.289C13.374 6.86586 11.4114 4.89447 8.99902 4.89447ZM8.99902 12.2285C7.38236 12.2285 6.07263 10.9085 6.07263 9.289C6.07263 7.67357 7.39077 6.34955 8.99902 6.34955C10.6073 6.34955 11.9205 7.67357 11.9205 9.289C11.9205 10.8849 10.6413 12.2285 8.99902 12.2285Z" fill="#FFBB0B"/>
</svg>
