<svg width="77" height="14" viewBox="0 0 77 14" fill="none" xmlns="http://www.w3.org/2000/svg">
<path d="M6.86685 0.409787C6.90876 0.280803 7.09124 0.280804 7.13315 0.409787L8.54017 4.74014C8.55891 4.79783 8.61266 4.83688 8.67331 4.83688H13.2265C13.3621 4.83688 13.4185 5.01043 13.3088 5.09014L9.62519 7.76645C9.57612 7.8021 9.55559 7.86529 9.57433 7.92298L10.9813 12.2533C11.0233 12.3823 10.8756 12.4896 10.7659 12.4099L7.08229 9.73355C7.03322 9.6979 6.96678 9.6979 6.91771 9.73355L3.23409 12.4099C3.12437 12.4896 2.97674 12.3823 3.01865 12.2533L4.42567 7.92298C4.44441 7.86529 4.42388 7.8021 4.37481 7.76645L0.69119 5.09014C0.58147 5.01043 0.637859 4.83688 0.77348 4.83688H5.32669C5.38734 4.83688 5.44109 4.79783 5.45983 4.74014L6.86685 0.409787Z" fill="#FFBB0B"/>
<path d="M22.6169 0.409787C22.6588 0.280803 22.8412 0.280804 22.8831 0.409787L24.2902 4.74014C24.3089 4.79783 24.3627 4.83688 24.4233 4.83688H28.9765C29.1121 4.83688 29.1685 5.01043 29.0588 5.09014L25.3752 7.76645C25.3261 7.8021 25.3056 7.86529 25.3243 7.92298L26.7313 12.2533C26.7733 12.3823 26.6256 12.4896 26.5159 12.4099L22.8323 9.73355C22.7832 9.6979 22.7168 9.6979 22.6677 9.73355L18.9841 12.4099C18.8744 12.4896 18.7267 12.3823 18.7687 12.2533L20.1757 7.92298C20.1944 7.86529 20.1739 7.8021 20.1248 7.76645L16.4412 5.09014C16.3315 5.01043 16.3879 4.83688 16.5235 4.83688H21.0767C21.1373 4.83688 21.1911 4.79783 21.2098 4.74014L22.6169 0.409787Z" fill="#FFBB0B"/>
<path d="M38.3669 0.409787C38.4088 0.280803 38.5912 0.280804 38.6331 0.409787L40.0402 4.74014C40.0589 4.79783 40.1127 4.83688 40.1733 4.83688H44.7265C44.8621 4.83688 44.9185 5.01043 44.8088 5.09014L41.1252 7.76645C41.0761 7.8021 41.0556 7.86529 41.0743 7.92298L42.4813 12.2533C42.5233 12.3823 42.3756 12.4896 42.2659 12.4099L38.5823 9.73355C38.5332 9.6979 38.4668 9.6979 38.4177 9.73355L34.7341 12.4099C34.6244 12.4896 34.4767 12.3823 34.5187 12.2533L35.9257 7.92298C35.9444 7.86529 35.9239 7.8021 35.8748 7.76645L32.1912 5.09014C32.0815 5.01043 32.1379 4.83688 32.2735 4.83688H36.8267C36.8873 4.83688 36.9411 4.79783 36.9598 4.74014L38.3669 0.409787Z" fill="#FFBB0B"/>
<path d="M54.1169 0.409787C54.1588 0.280803 54.3412 0.280804 54.3831 0.409787L55.7902 4.74014C55.8089 4.79783 55.8627 4.83688 55.9233 4.83688H60.4765C60.6121 4.83688 60.6685 5.01043 60.5588 5.09014L56.8752 7.76645C56.8261 7.8021 56.8056 7.86529 56.8243 7.92298L58.2313 12.2533C58.2733 12.3823 58.1256 12.4896 58.0159 12.4099L54.3323 9.73355C54.2832 9.6979 54.2168 9.6979 54.1677 9.73355L50.4841 12.4099C50.3744 12.4896 50.2267 12.3823 50.2687 12.2533L51.6757 7.92298C51.6944 7.86529 51.6739 7.8021 51.6248 7.76645L47.9412 5.09014C47.8315 5.01043 47.8879 4.83688 48.0235 4.83688H52.5767C52.6373 4.83688 52.6911 4.79783 52.7098 4.74014L54.1169 0.409787Z" fill="#FFBB0B"/>
<path d="M69.8669 0.409787C69.9088 0.280803 70.0912 0.280804 70.1331 0.409787L71.5402 4.74014C71.5589 4.79783 71.6127 4.83688 71.6733 4.83688H76.2265C76.3621 4.83688 76.4185 5.01043 76.3088 5.09014L72.6252 7.76645C72.5761 7.8021 72.5556 7.86529 72.5743 7.92298L73.9813 12.2533C74.0233 12.3823 73.8756 12.4896 73.7659 12.4099L70.0823 9.73355C70.0332 9.6979 69.9668 9.6979 69.9177 9.73355L66.2341 12.4099C66.1244 12.4896 65.9767 12.3823 66.0187 12.2533L67.4257 7.92298C67.4444 7.86529 67.4239 7.8021 67.3748 7.76645L63.6912 5.09014C63.5815 5.01043 63.6379 4.83688 63.7735 4.83688H68.3267C68.3873 4.83688 68.4411 4.79783 68.4598 4.74014L69.8669 0.409787Z" fill="#FFBB0B"/>
</svg>
